name rise49.8558peak67.6521fall70.3087.mot
datacolumns 19
datarows 55
range 12.503285 12.593285
endheader
time	ground_force1_vx	ground_force1_vy	ground_force1_vz	ground_force1_px	ground_force1_py	ground_force1_pz	ground_force2_vx	ground_force2_vy	ground_force2_vz	ground_force2_px	ground_force2_py	ground_force2_pz	ground_torque1_x	ground_torque1_y	ground_torque1_z	ground_torque2_x	ground_torque2_y	ground_torque2_z	
12.503285	0.000000	0.000000	0.000000	0.000000	0.000000	0.000000	-2.572215	709.165741	-49.215456	0.300096	0.000000	-0.108479	0.000000	0.000000	0.000000	0.000000	-28.924057	0.000000	
12.504956	0.000000	0.000000	0.000000	0.000000	0.000000	0.000000	-3.003560	709.632657	-49.182825	0.298935	0.000000	-0.108544	0.000000	0.000000	0.000000	0.000000	-28.928610	0.000000	
12.506615	0.000000	0.000000	0.000000	0.000000	0.000000	0.000000	-3.432569	710.107182	-49.149136	0.297796	0.000000	-0.108605	0.000000	0.000000	0.000000	0.000000	-28.933514	0.000000	
12.508288	0.000000	0.000000	0.000000	0.000000	0.000000	0.000000	-3.859262	710.588540	-49.114419	0.296681	0.000000	-0.108663	0.000000	0.000000	0.000000	0.000000	-28.938747	0.000000	
12.509956	0.000000	0.000000	0.000000	0.000000	0.000000	0.000000	-4.283659	711.076051	-49.078717	0.295589	0.000000	-0.108717	0.000000	0.000000	0.000000	0.000000	-28.944293	0.000000	
12.511618	0.000000	0.000000	0.000000	0.000000	0.000000	0.000000	-4.705782	711.569127	-49.042086	0.294521	0.000000	-0.108767	0.000000	0.000000	0.000000	0.000000	-28.950139	0.000000	
12.513298	0.000000	0.000000	0.000000	0.000000	0.000000	0.000000	-5.125654	712.067279	-49.004594	0.293477	0.000000	-0.108814	0.000000	0.000000	0.000000	0.000000	-28.956277	0.000000	
12.514957	0.000000	0.000000	0.000000	0.000000	0.000000	0.000000	-5.543303	712.570112	-48.966322	0.292456	0.000000	-0.108856	0.000000	0.000000	0.000000	0.000000	-28.962707	0.000000	
12.516623	0.000000	0.000000	0.000000	0.000000	0.000000	0.000000	-5.958754	713.077332	-48.927363	0.291459	0.000000	-0.108895	0.000000	0.000000	0.000000	0.000000	-28.969430	0.000000	
12.518286	0.000000	0.000000	0.000000	0.000000	0.000000	0.000000	-6.372041	713.588739	-48.887821	0.290485	0.000000	-0.108930	0.000000	0.000000	0.000000	0.000000	-28.976455	0.000000	
12.519949	0.000000	0.000000	0.000000	0.000000	0.000000	0.000000	-6.783195	714.104233	-48.847813	0.289535	0.000000	-0.108961	0.000000	0.000000	0.000000	0.000000	-28.983796	0.000000	
12.521620	0.000000	0.000000	0.000000	0.000000	0.000000	0.000000	-7.192253	714.623812	-48.807467	0.288606	0.000000	-0.108988	0.000000	0.000000	0.000000	0.000000	-28.991472	0.000000	
12.523287	0.000000	0.000000	0.000000	0.000000	0.000000	0.000000	-7.599257	715.147568	-48.766922	0.287700	0.000000	-0.109012	0.000000	0.000000	0.000000	0.000000	-28.999507	0.000000	
12.524955	0.000000	0.000000	0.000000	0.000000	0.000000	0.000000	-8.004248	715.675687	-48.726329	0.286816	0.000000	-0.109031	0.000000	0.000000	0.000000	0.000000	-29.007931	0.000000	
12.526620	0.000000	0.000000	0.000000	0.000000	0.000000	0.000000	-8.407274	716.208449	-48.685850	0.285954	0.000000	-0.109046	0.000000	0.000000	0.000000	0.000000	-29.016779	0.000000	
12.528291	0.000000	0.000000	0.000000	0.000000	0.000000	0.000000	-8.808388	716.746224	-48.645658	0.285112	0.000000	-0.109058	0.000000	0.000000	0.000000	0.000000	-29.026092	0.000000	
12.529956	0.000000	0.000000	0.000000	0.000000	0.000000	0.000000	-9.207645	717.289468	-48.605936	0.284290	0.000000	-0.109065	0.000000	0.000000	0.000000	0.000000	-29.035914	0.000000	
12.531621	0.000000	0.000000	0.000000	0.000000	0.000000	0.000000	-9.605106	717.838724	-48.566877	0.283488	0.000000	-0.109069	0.000000	0.000000	0.000000	0.000000	-29.046298	0.000000	
12.533283	0.000000	0.000000	0.000000	0.000000	0.000000	0.000000	-10.000835	718.394613	-48.528685	0.282705	0.000000	-0.109069	0.000000	0.000000	0.000000	0.000000	-29.057298	0.000000	
12.534949	0.000000	0.000000	0.000000	0.000000	0.000000	0.000000	-10.394905	718.957836	-48.491571	0.281940	0.000000	-0.109065	0.000000	0.000000	0.000000	0.000000	-29.068978	0.000000	
12.536615	0.000000	0.000000	0.000000	0.000000	0.000000	0.000000	-10.787389	719.529164	-48.455758	0.281193	0.000000	-0.109057	0.000000	0.000000	0.000000	0.000000	-29.081401	0.000000	
12.538284	0.000000	0.000000	0.000000	0.000000	0.000000	0.000000	-11.178368	720.109440	-48.421477	0.280462	0.000000	-0.109046	0.000000	0.000000	0.000000	0.000000	-29.094640	0.000000	
12.539950	0.000000	0.000000	0.000000	0.000000	0.000000	0.000000	-11.567927	720.699568	-48.388966	0.279748	0.000000	-0.109031	0.000000	0.000000	0.000000	0.000000	-29.108770	0.000000	
12.541620	0.000000	0.000000	0.000000	0.000000	0.000000	0.000000	-11.956157	721.300510	-48.358472	0.279048	0.000000	-0.109013	0.000000	0.000000	0.000000	0.000000	-29.123870	0.000000	
12.543284	0.000000	0.000000	0.000000	0.000000	0.000000	0.000000	-12.343154	721.913283	-48.330249	0.278363	0.000000	-0.108991	0.000000	0.000000	0.000000	0.000000	-29.140023	0.000000	
12.544953	0.000000	0.000000	0.000000	0.000000	0.000000	0.000000	-12.729017	722.538949	-48.304557	0.277691	0.000000	-0.108966	0.000000	0.000000	0.000000	0.000000	-29.157316	0.000000	
12.546617	0.000000	0.000000	0.000000	0.000000	0.000000	0.000000	-13.113853	723.178613	-48.281665	0.277032	0.000000	-0.108938	0.000000	0.000000	0.000000	0.000000	-29.175840	0.000000	
12.548288	0.000000	0.000000	0.000000	0.000000	0.000000	0.000000	-13.497773	723.833414	-48.261845	0.276384	0.000000	-0.108906	0.000000	0.000000	0.000000	0.000000	-29.195687	0.000000	
12.549949	0.000000	0.000000	0.000000	0.000000	0.000000	0.000000	-13.880890	724.504517	-48.245373	0.275747	0.000000	-0.108872	0.000000	0.000000	0.000000	0.000000	-29.216954	0.000000	
12.551621	0.000000	0.000000	0.000000	0.000000	0.000000	0.000000	-14.263325	725.193112	-48.232533	0.275119	0.000000	-0.108834	0.000000	0.000000	0.000000	0.000000	-29.239737	0.000000	
12.553289	0.000000	0.000000	0.000000	0.000000	0.000000	0.000000	-14.645201	725.900400	-48.223609	0.274501	0.000000	-0.108794	0.000000	0.000000	0.000000	0.000000	-29.264136	0.000000	
12.554963	0.000000	0.000000	0.000000	0.000000	0.000000	0.000000	-15.026646	726.627593	-48.218890	0.273891	0.000000	-0.108751	0.000000	0.000000	0.000000	0.000000	-29.290250	0.000000	
12.556619	0.000000	0.000000	0.000000	0.000000	0.000000	0.000000	-15.407793	727.375899	-48.218667	0.273287	0.000000	-0.108706	0.000000	0.000000	0.000000	0.000000	-29.318182	0.000000	
12.558284	0.000000	0.000000	0.000000	0.000000	0.000000	0.000000	-15.788777	728.146521	-48.223229	0.272690	0.000000	-0.108658	0.000000	0.000000	0.000000	0.000000	-29.348032	0.000000	
12.559948	0.000000	0.000000	0.000000	0.000000	0.000000	0.000000	-16.169735	728.940646	-48.232868	0.272098	0.000000	-0.108608	0.000000	0.000000	0.000000	0.000000	-29.379902	0.000000	
12.561620	0.000000	0.000000	0.000000	0.000000	0.000000	0.000000	-16.550810	729.759441	-48.247876	0.271511	0.000000	-0.108556	0.000000	0.000000	0.000000	0.000000	-29.413891	0.000000	
12.563289	0.000000	0.000000	0.000000	0.000000	0.000000	0.000000	-16.932145	730.604040	-48.268540	0.270927	0.000000	-0.108501	0.000000	0.000000	0.000000	0.000000	-29.450098	0.000000	
12.564949	0.000000	0.000000	0.000000	0.000000	0.000000	0.000000	-17.313887	731.475541	-48.295146	0.270345	0.000000	-0.108445	0.000000	0.000000	0.000000	0.000000	-29.488620	0.000000	
12.566616	0.000000	0.000000	0.000000	0.000000	0.000000	0.000000	-17.696184	732.374997	-48.327976	0.269766	0.000000	-0.108388	0.000000	0.000000	0.000000	0.000000	-29.529553	0.000000	
12.568282	0.000000	0.000000	0.000000	0.000000	0.000000	0.000000	-18.079184	733.303408	-48.367307	0.269188	0.000000	-0.108329	0.000000	0.000000	0.000000	0.000000	-29.572987	0.000000	
12.569957	0.000000	0.000000	0.000000	0.000000	0.000000	0.000000	-18.463038	734.261713	-48.413409	0.268609	0.000000	-0.108268	0.000000	0.000000	0.000000	0.000000	-29.619011	0.000000	
12.571621	0.000000	0.000000	0.000000	0.000000	0.000000	0.000000	-18.847896	735.250787	-48.466544	0.268031	0.000000	-0.108207	0.000000	0.000000	0.000000	0.000000	-29.667709	0.000000	
12.573286	0.000000	0.000000	0.000000	0.000000	0.000000	0.000000	-19.233907	736.271429	-48.526966	0.267451	0.000000	-0.108144	0.000000	0.000000	0.000000	0.000000	-29.719160	0.000000	
12.574955	0.000000	0.000000	0.000000	0.000000	0.000000	0.000000	-19.621221	737.324356	-48.594918	0.266869	0.000000	-0.108081	0.000000	0.000000	0.000000	0.000000	-29.773438	0.000000	
12.576620	0.000000	0.000000	0.000000	0.000000	0.000000	0.000000	-20.009986	738.410200	-48.670632	0.266284	0.000000	-0.108017	0.000000	0.000000	0.000000	0.000000	-29.830611	0.000000	
12.578285	0.000000	0.000000	0.000000	0.000000	0.000000	0.000000	-20.400347	739.529498	-48.754326	0.265696	0.000000	-0.107952	0.000000	0.000000	0.000000	0.000000	-29.890739	0.000000	
12.579953	0.000000	0.000000	0.000000	0.000000	0.000000	0.000000	-20.792446	740.682686	-48.846206	0.265105	0.000000	-0.107887	0.000000	0.000000	0.000000	0.000000	-29.953877	0.000000	
12.581618	0.000000	0.000000	0.000000	0.000000	0.000000	0.000000	-21.186425	741.870097	-48.946460	0.264508	0.000000	-0.107822	0.000000	0.000000	0.000000	0.000000	-30.020071	0.000000	
12.583285	0.000000	0.000000	0.000000	0.000000	0.000000	0.000000	-21.582417	743.091952	-49.055260	0.263907	0.000000	-0.107757	0.000000	0.000000	0.000000	0.000000	-30.089358	0.000000	
12.584955	0.000000	0.000000	0.000000	0.000000	0.000000	0.000000	-21.980556	744.348356	-49.172759	0.263301	0.000000	-0.107693	0.000000	0.000000	0.000000	0.000000	-30.161767	0.000000	
12.586623	0.000000	0.000000	0.000000	0.000000	0.000000	0.000000	-22.380967	745.639296	-49.299093	0.262688	0.000000	-0.107628	0.000000	0.000000	0.000000	0.000000	-30.237316	0.000000	
12.588282	0.000000	0.000000	0.000000	0.000000	0.000000	0.000000	-22.783769	746.964631	-49.434375	0.262069	0.000000	-0.107564	0.000000	0.000000	0.000000	0.000000	-30.316013	0.000000	
12.589951	0.000000	0.000000	0.000000	0.000000	0.000000	0.000000	-23.189079	748.324096	-49.578696	0.261443	0.000000	-0.107501	0.000000	0.000000	0.000000	0.000000	-30.397857	0.000000	
12.591618	0.000000	0.000000	0.000000	0.000000	0.000000	0.000000	-23.597002	749.717295	-49.732126	0.260810	0.000000	-0.107439	0.000000	0.000000	0.000000	0.000000	-30.482835	0.000000	
12.593285	0.000000	0.000000	0.000000	0.000000	0.000000	0.000000	-24.007638	751.143696	-49.894709	0.260169	0.000000	-0.107377	0.000000	0.000000	0.000000	0.000000	-30.570921	0.000000	
